<?xml version="1.0" encoding="utf-8"?>
<svg id="master-artboard" viewBox="0 0 1400 980" version="1.1" xmlns="http://www.w3.org/2000/svg" x="0px" y="0px" style="enable-background:new 0 0 1400 980;" width="1400px" height="980px"><path d="M 142.77236938476562 426.44000244140625 C 142.77236938476562 427.9466552734375 142.22569274902344 429.1233215332031 141.1323699951172 429.9700012207031 C 140.03903198242188 430.80999755859375 138.55569458007812 431.2300109863281 136.68235778808594 431.2300109863281 C 134.64903259277344 431.2300109863281 133.085693359375 430.9700012207031 131.99237060546875 430.45001220703125 L 131.99237060546875 428.5299987792969 C 132.69903564453125 428.8233337402344 133.4656982421875 429.0566711425781 134.2923583984375 429.2300109863281 C 135.11903381347656 429.4033203125 135.93902587890625 429.489990234375 136.7523651123047 429.489990234375 C 138.0790252685547 429.489990234375 139.0790252685547 429.2366638183594 139.7523651123047 428.7300109863281 C 140.4257049560547 428.2300109863281 140.76235961914062 427.5299987792969 140.76235961914062 426.6300048828125 C 140.76235961914062 426.03668212890625 140.64236450195312 425.54998779296875 140.40235900878906 425.1700134277344 C 140.16236877441406 424.7900085449219 139.7657012939453 424.44000244140625 139.21237182617188 424.1199951171875 C 138.65235900878906 423.79998779296875 137.8023681640625 423.4366760253906 136.66236877441406 423.0299987792969 C 135.06903076171875 422.46331787109375 133.9290313720703 421.78668212890625 133.24237060546875 421 C 132.55569458007812 420.2200012207031 132.21237182617188 419.2033386230469 132.21237182617188 417.95001220703125 C 132.21237182617188 416.6233215332031 132.7090301513672 415.57000732421875 133.70236206054688 414.7900085449219 C 134.69569396972656 414.010009765625 136.009033203125 413.6199951171875 137.64236450195312 413.6199951171875 C 139.34902954101562 413.6199951171875 140.9156951904297 413.9333190917969 142.3423614501953 414.55999755859375 L 141.7223663330078 416.2900085449219 C 140.3090362548828 415.6966552734375 138.932373046875 415.3999938964844 137.5923614501953 415.3999938964844 C 136.53903198242188 415.3999938964844 135.7156982421875 415.6266784667969 135.1223602294922 416.0799865722656 C 134.52903747558594 416.5333251953125 134.23236083984375 417.163330078125 134.23236083984375 417.9700012207031 C 134.23236083984375 418.5633239746094 134.3423614501953 419.04998779296875 134.56236267089844 419.42999267578125 C 134.78236389160156 419.80999755859375 135.15235900878906 420.15667724609375 135.67236328125 420.4700012207031 C 136.19236755371094 420.7900085449219 136.98570251464844 421.1400146484375 138.0523681640625 421.5199890136719 C 139.8523712158203 422.1600036621094 141.0890350341797 422.8466796875 141.76235961914062 423.5799865722656 C 142.43569946289062 424.3133239746094 142.77236938476562 425.26666259765625 142.77236938476562 426.44000244140625 ZM 147.93344116210938 431 L 145.9834442138672 431 L 145.9834442138672 418.1600036621094 L 147.93344116210938 418.1600036621094 L 147.93344116210938 431 M 145.8234405517578 414.67999267578125 C 145.8234405517578 414.23333740234375 145.93344116210938 413.90667724609375 146.1534423828125 413.70001220703125 C 146.3667755126953 413.49334716796875 146.64010620117188 413.3900146484375 146.97344970703125 413.3900146484375 C 147.28677368164062 413.3900146484375 147.55677795410156 413.49334716796875 147.783447265625 413.70001220703125 C 148.01011657714844 413.913330078125 148.12344360351562 414.239990234375 148.12344360351562 414.67999267578125 C 148.12344360351562 415.11334228515625 148.01011657714844 415.4366760253906 147.783447265625 415.6499938964844 C 147.55677795410156 415.8699951171875 147.28677368164062 415.9800109863281 146.97344970703125 415.9800109863281 C 146.64010620117188 415.9800109863281 146.3667755126953 415.8699951171875 146.1534423828125 415.6499938964844 C 145.93344116210938 415.4366760253906 145.8234405517578 415.11334228515625 145.8234405517578 414.67999267578125 ZM 153.97354125976562 424.42999267578125 C 154.3135528564453 423.95001220703125 154.82687377929688 423.3233337402344 155.5135498046875 422.54998779296875 L 159.66354370117188 418.1600036621094 L 161.97354125976562 418.1600036621094 L 156.7635498046875 423.6300048828125 L 162.3335418701172 431 L 159.97354125976562 431 L 155.44354248046875 424.92999267578125 L 153.97354125976562 426.20001220703125 L 153.97354125976562 431 L 152.0535430908203 431 L 152.0535430908203 412.7699890136719 L 153.97354125976562 412.7699890136719 L 153.97354125976562 422.42999267578125 C 153.97354125976562 422.86334228515625 153.94354248046875 423.5299987792969 153.883544921875 424.42999267578125 L 153.97354125976562 424.42999267578125 ZM 172.55067443847656 431 L 172.16067504882812 429.1700134277344 L 172.07066345214844 429.1700134277344 C 171.4306640625 429.9766540527344 170.79066467285156 430.5233459472656 170.15066528320312 430.80999755859375 C 169.517333984375 431.0899963378906 168.7239990234375 431.2300109863281 167.77066040039062 431.2300109863281 C 166.49732971191406 431.2300109863281 165.50067138671875 430.9033203125 164.78067016601562 430.25 C 164.0540008544922 429.5966796875 163.690673828125 428.663330078125 163.690673828125 427.45001220703125 C 163.690673828125 424.8566589355469 165.76400756835938 423.4966735839844 169.91067504882812 423.3699951171875 L 172.09066772460938 423.29998779296875 L 172.09066772460938 422.5 C 172.09066772460938 421.49334716796875 171.87400817871094 420.75 171.440673828125 420.2699890136719 C 171.00733947753906 419.7900085449219 170.31399536132812 419.54998779296875 169.3606719970703 419.54998779296875 C 168.29400634765625 419.54998779296875 167.08399963378906 419.8800048828125 165.7306671142578 420.5400085449219 L 165.1306610107422 419.04998779296875 C 165.76400756835938 418.7033386230469 166.45733642578125 418.4333190917969 167.21066284179688 418.239990234375 C 167.96400451660156 418.0466613769531 168.72067260742188 417.95001220703125 169.4806671142578 417.95001220703125 C 171.01400756835938 417.95001220703125 172.1473388671875 418.28668212890625 172.8806610107422 418.9599914550781 C 173.62066650390625 419.6400146484375 173.99066162109375 420.7300109863281 173.99066162109375 422.2300109863281 L 173.99066162109375 431 L 172.55067443847656 431 M 168.16067504882812 429.6300048828125 C 169.36734008789062 429.6300048828125 170.3173370361328 429.2966613769531 171.0106658935547 428.6300048828125 C 171.70399475097656 427.9700012207031 172.05067443847656 427.0400085449219 172.05067443847656 425.8399963378906 L 172.05067443847656 424.67999267578125 L 170.1006622314453 424.7699890136719 C 168.5540008544922 424.8233337402344 167.440673828125 425.0633239746094 166.7606658935547 425.489990234375 C 166.07400512695312 425.9100036621094 165.7306671142578 426.57000732421875 165.7306671142578 427.4700012207031 C 165.7306671142578 428.1766662597656 165.94400024414062 428.7133483886719 166.37066650390625 429.0799865722656 C 166.79733276367188 429.4466552734375 167.3939971923828 429.6300048828125 168.16067504882812 429.6300048828125 ZM 186.787353515625 431 L 186.787353515625 422.69000244140625 C 186.787353515625 421.6433410644531 186.55067443847656 420.86334228515625 186.0773468017578 420.3500061035156 C 185.59735107421875 419.8299865722656 184.85067749023438 419.57000732421875 183.83734130859375 419.57000732421875 C 182.4906768798828 419.57000732421875 181.50735473632812 419.9333190917969 180.88734436035156 420.6600036621094 C 180.26068115234375 421.38665771484375 179.9473419189453 422.586669921875 179.9473419189453 424.260009765625 L 179.9473419189453 431 L 177.99734497070312 431 L 177.99734497070312 418.1600036621094 L 179.5773468017578 418.1600036621094 L 179.89735412597656 419.9100036621094 L 179.9873504638672 419.9100036621094 C 180.38734436035156 419.27667236328125 180.9473419189453 418.78668212890625 181.66734313964844 418.44000244140625 C 182.38734436035156 418.09332275390625 183.18734741210938 417.9200134277344 184.06735229492188 417.9200134277344 C 185.614013671875 417.9200134277344 186.7806854248047 418.2933349609375 187.56735229492188 419.0400085449219 C 188.34735107421875 419.78668212890625 188.7373504638672 420.9800109863281 188.7373504638672 422.6199951171875 L 188.7373504638672 431 L 186.787353515625 431 ZM 201.4679718017578 429.2799987792969 L 201.3679656982422 429.2799987792969 C 200.4679718017578 430.5799865722656 199.1246337890625 431.2300109863281 197.3379669189453 431.2300109863281 C 195.65797424316406 431.2300109863281 194.35130310058594 430.65667724609375 193.41796875 429.510009765625 C 192.48463439941406 428.36334228515625 192.01797485351562 426.7300109863281 192.01797485351562 424.6099853515625 C 192.01797485351562 422.4966735839844 192.48463439941406 420.85333251953125 193.41796875 419.67999267578125 C 194.35797119140625 418.50665283203125 195.66464233398438 417.9200134277344 197.3379669189453 417.9200134277344 C 199.07797241210938 417.9200134277344 200.41464233398438 418.5533447265625 201.34796142578125 419.82000732421875 L 201.4979705810547 419.82000732421875 L 201.41796875 418.8900146484375 L 201.3679656982422 417.989990234375 L 201.3679656982422 412.7699890136719 L 203.30796813964844 412.7699890136719 L 203.30796813964844 431 L 201.72796630859375 431 L 201.4679718017578 429.2799987792969 M 197.57797241210938 429.6099853515625 C 198.9113006591797 429.6099853515625 199.8746337890625 429.2466735839844 200.4679718017578 428.5199890136719 C 201.06796264648438 427.79998779296875 201.3679656982422 426.6333312988281 201.3679656982422 425.0199890136719 L 201.3679656982422 424.6099853515625 C 201.3679656982422 422.7900085449219 201.06463623046875 421.49334716796875 200.4579620361328 420.7200012207031 C 199.85130310058594 419.94000244140625 198.88462829589844 419.54998779296875 197.55796813964844 419.54998779296875 C 196.41796875 419.54998779296875 195.5446319580078 419.99334716796875 194.93797302246094 420.8800048828125 C 194.331298828125 421.76666259765625 194.02796936035156 423.0199890136719 194.02796936035156 424.6400146484375 C 194.02796936035156 426.2799987792969 194.331298828125 427.51666259765625 194.93797302246094 428.3500061035156 C 195.5379638671875 429.19000244140625 196.41796875 429.6099853515625 197.57797241210938 429.6099853515625 ZM 215.3340606689453 431 L 214.94406127929688 429.1700134277344 L 214.8540496826172 429.1700134277344 C 214.21405029296875 429.9766540527344 213.5740509033203 430.5233459472656 212.93405151367188 430.80999755859375 C 212.30072021484375 431.0899963378906 211.50738525390625 431.2300109863281 210.55404663085938 431.2300109863281 C 209.2807159423828 431.2300109863281 208.2840576171875 430.9033203125 207.56405639648438 430.25 C 206.83738708496094 429.5966796875 206.47406005859375 428.663330078125 206.47406005859375 427.45001220703125 C 206.47406005859375 424.8566589355469 208.54739379882812 423.4966735839844 212.69406127929688 423.3699951171875 L 214.87405395507812 423.29998779296875 L 214.87405395507812 422.5 C 214.87405395507812 421.49334716796875 214.6573944091797 420.75 214.22406005859375 420.2699890136719 C 213.7907257080078 419.7900085449219 213.09738159179688 419.54998779296875 212.14405822753906 419.54998779296875 C 211.077392578125 419.54998779296875 209.8673858642578 419.8800048828125 208.51405334472656 420.5400085449219 L 207.91404724121094 419.04998779296875 C 208.54739379882812 418.7033386230469 209.24072265625 418.4333190917969 209.99404907226562 418.239990234375 C 210.7473907470703 418.0466613769531 211.50405883789062 417.95001220703125 212.26405334472656 417.95001220703125 C 213.79739379882812 417.95001220703125 214.93072509765625 418.28668212890625 215.66404724121094 418.9599914550781 C 216.404052734375 419.6400146484375 216.7740478515625 420.7300109863281 216.7740478515625 422.2300109863281 L 216.7740478515625 431 L 215.3340606689453 431 M 210.94406127929688 429.6300048828125 C 212.15072631835938 429.6300048828125 213.10072326660156 429.2966613769531 213.79405212402344 428.6300048828125 C 214.4873809814453 427.9700012207031 214.8340606689453 427.0400085449219 214.8340606689453 425.8399963378906 L 214.8340606689453 424.67999267578125 L 212.88404846191406 424.7699890136719 C 211.33738708496094 424.8233337402344 210.22406005859375 425.0633239746094 209.54405212402344 425.489990234375 C 208.85739135742188 425.9100036621094 208.51405334472656 426.57000732421875 208.51405334472656 427.4700012207031 C 208.51405334472656 428.1766662597656 208.72738647460938 428.7133483886719 209.154052734375 429.0799865722656 C 209.58071899414062 429.4466552734375 210.17738342285156 429.6300048828125 210.94406127929688 429.6300048828125 ZM 226.64073181152344 417.9200134277344 C 227.2140655517578 417.9200134277344 227.72740173339844 417.9666748046875 228.1807403564453 418.05999755859375 L 227.91073608398438 419.8699951171875 C 227.3773956298828 419.75 226.9073944091797 419.69000244140625 226.500732421875 419.69000244140625 C 225.4607391357422 419.69000244140625 224.57406616210938 420.11334228515625 223.84072875976562 420.9599914550781 C 223.10073852539062 421.79998779296875 222.73072814941406 422.8500061035156 222.73072814941406 424.1099853515625 L 222.73072814941406 431 L 220.78073120117188 431 L 220.78073120117188 418.1600036621094 L 222.39073181152344 418.1600036621094 L 222.61073303222656 420.5400085449219 L 222.7007293701172 420.5400085449219 C 223.1807403564453 419.70001220703125 223.7574005126953 419.0533447265625 224.4307403564453 418.6000061035156 C 225.09739685058594 418.14666748046875 225.8340606689453 417.9200134277344 226.64073181152344 417.9200134277344 ZM 230.29786682128906 429.760009765625 C 230.29786682128906 429.23333740234375 230.41786193847656 428.836669921875 230.65786743164062 428.57000732421875 C 230.8978729248047 428.2966613769531 231.2378692626953 428.1600036621094 231.67787170410156 428.1600036621094 C 232.13119506835938 428.1600036621094 232.48452758789062 428.2966613769531 232.7378692626953 428.57000732421875 C 232.99786376953125 428.836669921875 233.12786865234375 429.23333740234375 233.12786865234375 429.760009765625 C 233.12786865234375 430.26666259765625 232.99786376953125 430.65667724609375 232.7378692626953 430.92999267578125 C 232.47787475585938 431.2033386230469 232.12454223632812 431.3399963378906 231.67787170410156 431.3399963378906 C 231.28453063964844 431.3399963378906 230.95452880859375 431.2166748046875 230.6878662109375 430.9700012207031 C 230.42787170410156 430.72332763671875 230.29786682128906 430.32000732421875 230.29786682128906 429.760009765625 Z" transform="matrix(13.007095336914062, 0, 0, 13.007095336914062, -1673.689697265625, -5371.06103515625)" style="fill: rgb(255, 255, 255); white-space: pre; color: rgb(51, 51, 51);"/></svg>