<?xml version="1.0" encoding="utf-8"?>
<svg id="master-artboard" viewBox="0 0 1400 980" xmlns="http://www.w3.org/2000/svg" width="1400px" height="980px" version="1.1" style="shape-rendering:geometricPrecision; text-rendering:geometricPrecision; image-rendering:optimizeQuality; fill-rule:evenodd; clip-rule:evenodd"><rect id="ee-background" x="0" y="0" width="1400" height="980" style="fill: white; fill-opacity: 0; pointer-events: none;"/><path d="M 185.9171905517578 230.72000122070312 C 185.9171905517578 243.0333251953125 182.79385375976562 253.9633331298828 176.54718017578125 263.510009765625 C 170.30052185058594 273.0566711425781 161.29385375976562 280.4766540527344 149.52719116210938 285.7699890136719 C 137.76718139648438 291.07000732421875 123.9671859741211 293.7200012207031 108.12718200683594 293.7200012207031 C 94.91384887695312 293.7200012207031 83.82718658447266 292.7900085449219 74.8671875 290.92999267578125 C 65.90718078613281 289.07666015625 56.5838508605957 285.84332275390625 46.897186279296875 281.2300109863281 L 46.897186279296875 233.44000244140625 C 57.12385177612305 238.68667602539062 67.75718688964844 242.77999877929688 78.79718017578125 245.72000122070312 C 89.84385681152344 248.6666717529297 99.98052215576172 250.13999938964844 109.20718383789062 250.13999938964844 C 117.1738510131836 250.13999938964844 123.01385498046875 248.7566680908203 126.72718811035156 245.99000549316406 C 130.43385314941406 243.22999572753906 132.2871856689453 239.67999267578125 132.2871856689453 235.33999633789062 C 132.2871856689453 232.6199951171875 131.54052734375 230.2433319091797 130.04718017578125 228.20999145507812 C 128.55384826660156 226.17666625976562 126.15718841552734 224.11666870117188 122.85718536376953 222.02999877929688 C 119.55052185058594 219.9499969482422 110.74718475341797 215.6966552734375 96.44718933105469 209.26998901367188 C 83.50718688964844 203.38999938964844 73.80052185058594 197.69000244140625 67.32718658447266 192.1699981689453 C 60.853851318359375 186.64334106445312 56.05718231201172 180.30667114257812 52.93718719482422 173.16000366210938 C 49.81718444824219 166.0066680908203 48.25718688964844 157.5433349609375 48.25718688964844 147.77000427246094 C 48.25718688964844 129.49000549316406 54.90718460083008 115.23666381835938 68.20718383789062 105.00999450683594 C 81.51385498046875 94.78334045410156 99.79718780517578 89.66999816894531 123.05718231201172 89.66999816894531 C 143.60385131835938 89.66999816894531 164.55718994140625 94.41999816894531 185.9171905517578 103.91999816894531 L 169.4871826171875 145.3300018310547 C 150.93385314941406 136.82333374023438 134.91384887695312 132.57000732421875 121.42718505859375 132.57000732421875 C 114.46051788330078 132.57000732421875 109.39385223388672 133.7899932861328 106.22718811035156 136.22999572753906 C 103.05384826660156 138.67666625976562 101.4671859741211 141.7100067138672 101.4671859741211 145.3300018310547 C 101.4671859741211 149.22332763671875 103.48384857177734 152.7066650390625 107.51718139648438 155.77999877929688 C 111.54385375976562 158.86000061035156 122.47052001953125 164.47332763671875 140.29718017578125 172.6199951171875 C 157.4038543701172 180.31332397460938 169.2838592529297 188.57000732421875 175.9371795654297 197.38999938964844 C 182.59051513671875 206.2166748046875 185.9171905517578 217.32666015625 185.9171905517578 230.72000122070312 ZM 267.029052734375 291 L 213.94906616210938 291 L 213.94906616210938 137.17999267578125 L 267.029052734375 137.17999267578125 L 267.029052734375 291 M 212.5890655517578 98.89999389648438 C 212.5890655517578 90.93333435058594 214.80572509765625 85.00332641601562 219.2390594482422 81.11000061035156 C 223.67906188964844 77.21665954589844 230.8290557861328 75.27000427246094 240.68905639648438 75.27000427246094 C 250.55572509765625 75.27000427246094 257.75238037109375 77.26333618164062 262.279052734375 81.25 C 266.80572509765625 85.22999572753906 269.0690612792969 91.11332702636719 269.0690612792969 98.89999389648438 C 269.0690612792969 114.46665954589844 259.60906982421875 122.25 240.68905639648438 122.25 C 221.95571899414062 122.25 212.5890655517578 114.46665954589844 212.5890655517578 98.89999389648438 ZM 355.7696838378906 204.51998901367188 C 362.19635009765625 194.2933349609375 367.67303466796875 186.3300018310547 372.1996765136719 180.6300048828125 L 406.6796875 137.17999267578125 L 465.86968994140625 137.17999267578125 L 412.5196838378906 202.6199951171875 L 469.2696838378906 291 L 408.5796813964844 291 L 374.90966796875 235.8800048828125 L 357.669677734375 249.0500030517578 L 357.669677734375 291 L 304.3196716308594 291 L 304.3196716308594 79.75 L 357.669677734375 79.75 L 357.669677734375 162.83999633789062 C 357.669677734375 177.0533447265625 356.6763610839844 190.9466552734375 354.689697265625 204.51998901367188 L 355.7696838378906 204.51998901367188 ZM 588.134033203125 291 L 577.944091796875 270.6400146484375 L 576.8640747070312 270.6400146484375 C 569.710693359375 279.50665283203125 562.424072265625 285.57000732421875 555.0040283203125 288.8299865722656 C 547.5840454101562 292.0899963378906 537.99072265625 293.7200012207031 526.2240600585938 293.7200012207031 C 511.7440490722656 293.7200012207031 500.3407287597656 289.3733215332031 492.0140686035156 280.67999267578125 C 483.6873779296875 271.99334716796875 479.5240478515625 259.77667236328125 479.5240478515625 244.02999877929688 C 479.5240478515625 227.64334106445312 485.22406005859375 215.4466552734375 496.6240539550781 207.44000244140625 C 508.0307312011719 199.42666625976562 524.5507202148438 194.92333984375 546.18408203125 193.92999267578125 L 571.8340454101562 193.1199951171875 L 571.8340454101562 190.94000244140625 C 571.8340454101562 178.27333068847656 565.5906982421875 171.94000244140625 553.1040649414062 171.94000244140625 C 541.8773803710938 171.94000244140625 527.6207275390625 175.739990234375 510.33404541015625 183.33999633789062 L 494.9940490722656 148.30999755859375 C 512.9140625 139.0833282470703 535.5407104492188 134.47000122070312 562.8740844726562 134.47000122070312 C 582.607421875 134.47000122070312 597.8807373046875 139.35667419433594 608.694091796875 149.1300048828125 C 619.5140380859375 158.90333557128906 624.924072265625 172.57000732421875 624.924072265625 190.1300048828125 L 624.924072265625 291 L 588.134033203125 291 M 548.7540283203125 256.239990234375 C 555.1807250976562 256.239990234375 560.6807250976562 254.2066650390625 565.2540283203125 250.13999938964844 C 569.827392578125 246.06666564941406 572.1140747070312 240.77000427246094 572.1140747070312 234.25 L 572.1140747070312 222.3000030517578 L 559.89404296875 222.85000610351562 C 542.4273681640625 223.48333740234375 533.694091796875 229.91000366210938 533.694091796875 242.1300048828125 C 533.694091796875 251.5366668701172 538.7140502929688 256.239990234375 548.7540283203125 256.239990234375 ZM 758.3272094726562 291 L 758.3272094726562 207.10000610351562 C 758.3272094726562 196.8733367919922 756.857177734375 189.15667724609375 753.9171752929688 183.9499969482422 C 750.9705200195312 178.75 746.2405395507812 176.14999389648438 739.7271728515625 176.14999389648438 C 730.7672119140625 176.14999389648438 724.2938232421875 179.72332763671875 720.3071899414062 186.8699951171875 C 716.3272094726562 194.02333068847656 714.337158203125 206.2866668701172 714.337158203125 223.66000366210938 L 714.337158203125 291 L 661.2572021484375 291 L 661.2572021484375 137.17999267578125 L 701.3071899414062 137.17999267578125 L 707.9571533203125 156.19000244140625 L 711.0772094726562 156.19000244140625 C 715.6038818359375 148.9499969482422 721.8738403320312 143.52000427246094 729.88720703125 139.89999389648438 C 737.8938598632812 136.27999877929688 747.1005249023438 134.47000122070312 757.5072021484375 134.47000122070312 C 774.5272216796875 134.47000122070312 787.7638549804688 139.39999389648438 797.2171630859375 149.25999450683594 C 806.6771850585938 159.1266632080078 811.4071655273438 173.01998901367188 811.4071655273438 190.94000244140625 L 811.4071655273438 291 L 758.3272094726562 291 ZM 895.5159301757812 293.7200012207031 C 884.5626220703125 293.7200012207031 874.9892578125 290.5966796875 866.7959594726562 284.3500061035156 C 858.6092529296875 278.10333251953125 852.2759399414062 268.9166564941406 847.7959594726562 256.7900085449219 C 843.31591796875 244.663330078125 841.075927734375 230.49667358398438 841.075927734375 214.29000854492188 C 841.075927734375 189.30999755859375 846.0992431640625 169.76333618164062 856.1459350585938 155.64999389648438 C 866.1859130859375 141.52999877929688 879.9859619140625 134.47000122070312 897.5459594726562 134.47000122070312 C 906.1459350585938 134.47000122070312 913.6826171875 136.19000244140625 920.1559448242188 139.6300048828125 C 926.6226196289062 143.06333923339844 932.5259399414062 148.85333251953125 937.865966796875 157 L 938.9559326171875 157 C 937.2359619140625 144.96665954589844 936.3759155273438 132.92999267578125 936.3759155273438 120.88999938964844 L 936.3759155273438 79.75 L 989.865966796875 79.75 L 989.865966796875 291 L 949.81591796875 291 L 938.4159545898438 271.5899963378906 L 936.3759155273438 271.5899963378906 C 927.2359619140625 286.34332275390625 913.615966796875 293.7200012207031 895.5159301757812 293.7200012207031 M 917.2359619140625 251.75999450683594 C 925.7426147460938 251.75999450683594 931.7392578125 249.08999633789062 935.2259521484375 243.75 C 938.7059326171875 238.41000366210938 940.5825805664062 230.17666625976562 940.85595703125 219.0500030517578 L 940.85595703125 214.83999633789062 C 940.85595703125 201.260009765625 938.9093017578125 191.59666442871094 935.0159301757812 185.85000610351562 C 931.1226196289062 180.10333251953125 925.0125732421875 177.23001098632812 916.6859130859375 177.23001098632812 C 909.71923828125 177.23001098632812 904.3126220703125 180.510009765625 900.4659423828125 187.07000732421875 C 896.6192626953125 193.63665771484375 894.6959228515625 202.98333740234375 894.6959228515625 215.11000061035156 C 894.6959228515625 227.05667114257812 896.642578125 236.15333557128906 900.5359497070312 242.39999389648438 C 904.4292602539062 248.63999938964844 909.9959106445312 251.75999450683594 917.2359619140625 251.75999450683594 ZM 1127.071533203125 291 L 1116.881591796875 270.6400146484375 L 1115.801513671875 270.6400146484375 C 1108.648193359375 279.50665283203125 1101.361572265625 285.57000732421875 1093.9415283203125 288.8299865722656 C 1086.5216064453125 292.0899963378906 1076.92822265625 293.7200012207031 1065.16162109375 293.7200012207031 C 1050.6815185546875 293.7200012207031 1039.2781982421875 289.3733215332031 1030.9515380859375 280.67999267578125 C 1022.6248779296875 271.99334716796875 1018.4615478515625 259.77667236328125 1018.4615478515625 244.02999877929688 C 1018.4615478515625 227.64334106445312 1024.16162109375 215.4466552734375 1035.5615234375 207.44000244140625 C 1046.96826171875 199.42666625976562 1063.48828125 194.92333984375 1085.12158203125 193.92999267578125 L 1110.7716064453125 193.1199951171875 L 1110.7716064453125 190.94000244140625 C 1110.7716064453125 178.27333068847656 1104.5281982421875 171.94000244140625 1092.04150390625 171.94000244140625 C 1080.81494140625 171.94000244140625 1066.5582275390625 175.739990234375 1049.2716064453125 183.33999633789062 L 1033.9315185546875 148.30999755859375 C 1051.8515625 139.0833282470703 1074.478271484375 134.47000122070312 1101.8115234375 134.47000122070312 C 1121.544921875 134.47000122070312 1136.8182373046875 139.35667419433594 1147.631591796875 149.1300048828125 C 1158.4515380859375 158.90333557128906 1163.861572265625 172.57000732421875 1163.861572265625 190.1300048828125 L 1163.861572265625 291 L 1127.071533203125 291 M 1087.6915283203125 256.239990234375 C 1094.1181640625 256.239990234375 1099.6181640625 254.2066650390625 1104.1915283203125 250.13999938964844 C 1108.764892578125 246.06666564941406 1111.051513671875 240.77000427246094 1111.051513671875 234.25 L 1111.051513671875 222.3000030517578 L 1098.83154296875 222.85000610351562 C 1081.3648681640625 223.48333740234375 1072.631591796875 229.91000366210938 1072.631591796875 242.1300048828125 C 1072.631591796875 251.5366668701172 1077.651611328125 256.239990234375 1087.6915283203125 256.239990234375 ZM 1293.0390625 134.47000122070312 C 1297.6524658203125 134.47000122070312 1302.04248046875 134.8300018310547 1306.2091064453125 135.5500030517578 L 1309.1890869140625 136.10000610351562 L 1304.4390869140625 186.19000244140625 C 1300.09912109375 185.10333251953125 1294.0823974609375 184.55999755859375 1286.38916015625 184.55999755859375 C 1274.802490234375 184.55999755859375 1266.3824462890625 187.2066650390625 1261.129150390625 192.5 C 1255.8824462890625 197.8000030517578 1253.2591552734375 205.42666625976562 1253.2591552734375 215.3800048828125 L 1253.2591552734375 291 L 1200.1790771484375 291 L 1200.1790771484375 137.17999267578125 L 1239.6790771484375 137.17999267578125 L 1247.9691162109375 161.75 L 1250.549072265625 161.75 C 1254.982421875 153.61000061035156 1261.1591796875 147.02667236328125 1269.0791015625 142 C 1276.9991455078125 136.97999572753906 1284.98583984375 134.47000122070312 1293.0390625 134.47000122070312 ZM 1324.2166748046875 268.4599914550781 C 1324.2166748046875 260.1333312988281 1326.679931640625 253.70999145507812 1331.6065673828125 249.19000244140625 C 1336.5399169921875 244.663330078125 1343.7132568359375 242.39999389648438 1353.1265869140625 242.39999389648438 C 1362.086669921875 242.39999389648438 1368.9666748046875 244.663330078125 1373.7666015625 249.19000244140625 C 1378.5599365234375 253.70999145507812 1380.9566650390625 260.1333312988281 1380.9566650390625 268.4599914550781 C 1380.9566650390625 276.6066589355469 1378.489990234375 282.9666748046875 1373.556640625 287.5400085449219 C 1368.6300048828125 292.1066589355469 1361.8199462890625 294.3900146484375 1353.1265869140625 294.3900146484375 C 1344.1666259765625 294.3900146484375 1337.1065673828125 292.1300048828125 1331.9466552734375 287.6099853515625 C 1326.7933349609375 283.0833435058594 1324.2166748046875 276.70001220703125 1324.2166748046875 268.4599914550781 Z" transform="matrix(1.012418508529663, 0, 0, 1.012418508529663, -24.048690795898438, 334.8138427734375)" style="fill: rgb(250, 245, 255); white-space: pre; color: rgb(255, 254, 250); stroke-opacity: 1; paint-order: fill;"/></svg>